<?xml version="1.0" encoding="UTF-8" standalone="no"?>
<!-- Created with Inkscape (http://www.inkscape.org/) -->

<svg
   xmlns:dc="http://purl.org/dc/elements/1.1/"
   xmlns:cc="http://creativecommons.org/ns#"
   xmlns:rdf="http://www.w3.org/1999/02/22-rdf-syntax-ns#"
   xmlns:svg="http://www.w3.org/2000/svg"
   xmlns="http://www.w3.org/2000/svg"
   xmlns:xlink="http://www.w3.org/1999/xlink"
   xmlns:sodipodi="http://sodipodi.sourceforge.net/DTD/sodipodi-0.dtd"
   xmlns:inkscape="http://www.inkscape.org/namespaces/inkscape"
   id="svg2"
   height="63"
   viewBox="0 0 105 63.000003"
   width="105"
   version="1.1"
   inkscape:version="0.91 r13725"
   sodipodi:docname="ui-icon-sprite-21x21.svg">
  <sodipodi:namedview
     pagecolor="#222222"
     bordercolor="#666666"
     borderopacity="1"
     objecttolerance="10"
     gridtolerance="10"
     guidetolerance="10"
     inkscape:pageopacity="0"
     inkscape:pageshadow="2"
     inkscape:window-width="1366"
     inkscape:window-height="705"
     id="namedview165"
     showgrid="false"
     inkscape:zoom="2.4883424"
     inkscape:cx="88.203743"
     inkscape:cy="56.117662"
     inkscape:window-x="-8"
     inkscape:window-y="-8"
     inkscape:window-maximized="1"
     inkscape:current-layer="svg2" />
  <defs
     id="defs4">
    <linearGradient
       x1="-65.918999"
       x2="-65.918999"
       y1="1703.4"
       gradientUnits="userSpaceOnUse"
       y2="1719.3"
       id="linearGradient4290">
      <stop
         offset="0"
         stop-color="#4d4d4d"
         id="stop4292"
         style="stop-color:#808080;stop-opacity:1" />
      <stop
         offset="1"
         id="stop4294" />
    </linearGradient>
    <linearGradient
       id="linearGradient6318">
      <stop
         id="stop6320"
         stop-color="#c5d9f3"
         offset="0" />
      <stop
         id="stop6322"
         stop-color="#6186b7"
         offset="1" />
    </linearGradient>
    <linearGradient
       id="linearGradient6312">
      <stop
         id="stop6314"
         stop-color="#a4c0df"
         offset="0" />
      <stop
         id="stop6316"
         stop-color="#6c92bc"
         offset="1" />
    </linearGradient>
    <linearGradient
       id="linearGradient4172">
      <stop
         id="stop4174"
         stop-color="#5a5a5a"
         offset="0" />
      <stop
         id="stop4176"
         stop-color="#323232"
         offset="1" />
    </linearGradient>
    <linearGradient
       id="linearGradient4178"
       x1="10.438"
       xlink:href="#linearGradient4172"
       gradientUnits="userSpaceOnUse"
       y1="995.90997"
       gradientTransform="matrix(1.1667,0,0,1.1667,-1.8235,-1154.82)"
       x2="10.438"
       y2="1001.8" />
    <linearGradient
       id="linearGradient4197-6"
       x1="10.412"
       xlink:href="#linearGradient4172"
       gradientUnits="userSpaceOnUse"
       y1="1024.3"
       gradientTransform="matrix(1.1667,0,0,0.83333,-1.0743,-799.6)"
       x2="10.412"
       y2="1018.4" />
    <linearGradient
       id="linearGradient4197-6-0"
       x1="10.431"
       xlink:href="#linearGradient4172"
       gradientUnits="userSpaceOnUse"
       y1="1023.9"
       gradientTransform="matrix(-1.1667,0,0,-0.83333,42.074,902.64)"
       x2="9.3591995"
       y2="1017.4" />
    <linearGradient
       id="linearGradient5316"
       x1="10.355"
       xlink:href="#linearGradient4172"
       gradientUnits="userSpaceOnUse"
       y1="1024.3"
       gradientTransform="matrix(1.1667,0,0,1.1667,-1.5743,-1161.03)"
       x2="10.355"
       y2="1018.4" />
    <linearGradient
       id="linearGradient5318"
       x1="33.918999"
       xlink:href="#linearGradient4172"
       gradientUnits="userSpaceOnUse"
       y1="1019.9"
       gradientTransform="matrix(1.1667,0,0,1.1667,-5.5646,-1159.55)"
       x2="27.902"
       y2="1019.9" />
    <linearGradient
       id="linearGradient5320"
       x1="27.823999"
       xlink:href="#linearGradient4172"
       gradientUnits="userSpaceOnUse"
       y1="999.62"
       gradientTransform="matrix(1.1667,0,0,1.1667,-5.4618,-1155.72)"
       x2="33.824001"
       y2="999.62" />
    <linearGradient
       id="linearGradient4176"
       y2="149.44"
       gradientUnits="userSpaceOnUse"
       y1="135.44"
       x2="80.852997"
       x1="68.758003">
      <stop
         id="stop4172"
         stop-color="#bdbdbd"
         offset="0" />
      <stop
         id="stop4174-4"
         stop-color="#393939"
         offset="1" />
    </linearGradient>
    <filter
       id="filter4262"
       style="color-interpolation-filters:sRGB">
      <feFlood
         id="feFlood4264"
         flood-color="rgb(0,0,0)"
         flood-opacity=".18431"
         result="flood" />
      <feComposite
         id="feComposite4266"
         operator="in"
         in="flood"
         in2="SourceGraphic"
         result="composite1" />
      <feGaussianBlur
         id="feGaussianBlur4268"
         in="composite1"
         stdDeviation="0"
         result="blur" />
      <feOffset
         id="feOffset4270"
         dy="1"
         dx="1"
         result="offset" />
      <feComposite
         id="feComposite4272"
         operator="over"
         in="SourceGraphic"
         in2="offset"
         result="composite2" />
    </filter>
    <linearGradient
       id="linearGradient4168"
       y2="136.66"
       gradientUnits="userSpaceOnUse"
       y1="148.62"
       x2="79.758003"
       x1="69.864998"
       gradientTransform="matrix(1.0399,0,0,1.0117,-25.827,-133.25)">
      <stop
         id="stop4164"
         stop-color="#fff"
         offset="0" />
      <stop
         id="stop4166"
         stop-color="#eee"
         offset="1" />
    </linearGradient>
    <linearGradient
       id="linearGradient4315"
       x1="33.882"
       xlink:href="#linearGradient4309"
       gradientUnits="userSpaceOnUse"
       y1="92.667999"
       gradientTransform="translate(9.0911,920.89)"
       x2="46.331001"
       y2="103.12" />
    <linearGradient
       id="linearGradient4309">
      <stop
         id="stop4311"
         stop-color="#f7d659"
         offset="0" />
      <stop
         id="stop4313"
         stop-color="#f6be19"
         offset="1" />
    </linearGradient>
    <linearGradient
       id="linearGradient4331"
       x1="33.882"
       xlink:href="#linearGradient4325"
       gradientUnits="userSpaceOnUse"
       y1="92.667999"
       gradientTransform="translate(9.0911,920.89)"
       x2="46.331001"
       y2="103.12" />
    <linearGradient
       id="linearGradient4325">
      <stop
         id="stop4327"
         stop-color="#b49459"
         offset="0" />
      <stop
         id="stop4329"
         stop-color="#71441b"
         offset="1" />
    </linearGradient>
    <linearGradient
       id="linearGradient4323"
       x1="36.459"
       gradientUnits="userSpaceOnUse"
       y1="97.129997"
       gradientTransform="translate(11.3823,-67.52)"
       x2="46.509998"
       y2="103.2">
      <stop
         id="stop4319"
         stop-color="#ffed85"
         offset="0" />
      <stop
         id="stop4321"
         stop-color="#fede3a"
         offset="1" />
    </linearGradient>
    <linearGradient
       id="linearGradient4339"
       x1="36.459"
       gradientUnits="userSpaceOnUse"
       y1="97.129997"
       gradientTransform="translate(11.3823,-67.52)"
       x2="46.509998"
       y2="103.2">
      <stop
         id="stop4335"
         stop-color="#c6a46b"
         offset="0" />
      <stop
         id="stop4337"
         stop-color="#71441b"
         offset="1" />
    </linearGradient>
    <filter
       id="filter4291"
       style="color-interpolation-filters:sRGB">
      <feFlood
         id="feFlood4293"
         flood-color="rgb(0,0,0)"
         flood-opacity=".18431"
         result="flood" />
      <feComposite
         id="feComposite4295"
         operator="in"
         in="flood"
         in2="SourceGraphic"
         result="composite1" />
      <feGaussianBlur
         id="feGaussianBlur4297"
         in="composite1"
         stdDeviation="0"
         result="blur" />
      <feOffset
         id="feOffset4299"
         dy="1"
         dx="1"
         result="offset" />
      <feComposite
         id="feComposite4301"
         operator="over"
         in="SourceGraphic"
         in2="offset"
         result="composite2" />
    </filter>
    <linearGradient
       id="linearGradient4315-3"
       x1="33.882"
       xlink:href="#linearGradient4309"
       gradientUnits="userSpaceOnUse"
       y1="92.667999"
       gradientTransform="translate(9.3993,942.74)"
       x2="46.507"
       y2="103.2" />
    <linearGradient
       id="linearGradient4331-4"
       x1="33.882"
       xlink:href="#linearGradient4325"
       gradientUnits="userSpaceOnUse"
       y1="92.667999"
       gradientTransform="translate(9.3993,942.74)"
       x2="46.507"
       y2="103.2" />
    <filter
       id="filter4291-94-7"
       style="color-interpolation-filters:sRGB">
      <feFlood
         id="feFlood4293-0-2"
         flood-color="rgb(0,0,0)"
         flood-opacity=".18431"
         result="flood" />
      <feComposite
         id="feComposite4295-9-5"
         operator="in"
         in="flood"
         in2="SourceGraphic"
         result="composite1" />
      <feGaussianBlur
         id="feGaussianBlur4297-0-2"
         in="composite1"
         stdDeviation="0"
         result="blur" />
      <feOffset
         id="feOffset4299-89-8"
         dy="1"
         dx="1"
         result="offset" />
      <feComposite
         id="feComposite4301-3-4"
         operator="over"
         in="SourceGraphic"
         in2="offset"
         result="composite2" />
    </filter>
    <linearGradient
       id="linearGradient6005"
       y2="1719.4"
       gradientUnits="userSpaceOnUse"
       y1="1703.4"
       x2="-65.936996"
       x1="-65.936996"
       gradientTransform="translate(137.98,-1699.3)">
      <stop
         id="stop6001"
         stop-color="#8ab975"
         offset="0" />
      <stop
         id="stop6003"
         stop-color="#549747"
         offset="1" />
    </linearGradient>
    <linearGradient
       id="linearGradient6014"
       y2="1716.2"
       gradientUnits="userSpaceOnUse"
       y1="1706.6"
       x2="-65.982002"
       x1="-65.982002"
       gradientTransform="translate(137.98,-1699.3)">
      <stop
         id="stop6010"
         stop-color="#a8dca0"
         offset="0" />
      <stop
         id="stop6012"
         stop-color="#73b65c"
         offset="1" />
    </linearGradient>
    <linearGradient
       id="linearGradient6014-4"
       y2="1716.2"
       gradientUnits="userSpaceOnUse"
       y1="1706.6"
       x2="-65.982002"
       x1="-65.982002"
       gradientTransform="translate(137.98,-1679.3)">
      <stop
         id="stop6187"
         stop-color="#f8a899"
         offset="0" />
      <stop
         id="stop6189"
         stop-color="#e8584c"
         offset="1" />
    </linearGradient>
    <linearGradient
       id="linearGradient6005-6"
       y2="1719.4"
       gradientUnits="userSpaceOnUse"
       y1="1703.4"
       x2="-65.936996"
       x1="-65.936996"
       gradientTransform="translate(137.98,-1679.3)">
      <stop
         id="stop6193"
         stop-color="#df7170"
         offset="0" />
      <stop
         id="stop6195"
         stop-color="#c65e47"
         offset="1" />
    </linearGradient>
    <linearGradient
       id="linearGradient6014-4-2"
       x1="-65.982002"
       xlink:href="#linearGradient6312"
       gradientUnits="userSpaceOnUse"
       x2="-65.982002"
       y1="1706.6"
       y2="1716.2"
       gradientTransform="translate(137.98,-1659.3)" />
    <linearGradient
       id="linearGradient6005-6-9"
       x1="-65.936996"
       xlink:href="#linearGradient6318"
       gradientUnits="userSpaceOnUse"
       x2="-65.936996"
       y1="1703.4"
       y2="1719.4"
       gradientTransform="translate(137.98,-1659.3)" />
    <linearGradient
       id="linearGradient4388"
       x1="-65.982002"
       gradientUnits="userSpaceOnUse"
       y1="1706.6"
       gradientTransform="matrix(0.93333,0,0,0.93333,173.5812,-1545.21)"
       x2="-65.982002"
       y2="1716.2">
      <stop
         id="stop4400"
         stop-color="#fff"
         offset="0" />
      <stop
         id="stop4402"
         stop-color="#f2f2f2"
         offset="1" />
    </linearGradient>
    <linearGradient
       id="linearGradient4481"
       y2="1719.3"
       gradientUnits="userSpaceOnUse"
       y1="1703.4"
       x2="-65.918999"
       x1="-65.918999">
      <stop
         id="stop4513"
         stop-color="#4d4d4d"
         offset="0"
         style="stop-color:#808080;stop-opacity:1" />
      <stop
         id="stop4515"
         offset="1" />
    </linearGradient>
    <linearGradient
       id="linearGradient4483"
       y2="1719.2562"
       gradientUnits="userSpaceOnUse"
       y1="1703.4"
       x2="-65.918999"
       x1="-65.918999"
       gradientTransform="translate(177.98,-1659.2999)">
      <stop
         id="stop4489"
         stop-color="#333"
         offset="0"
         style="stop-color:#808080;stop-opacity:1" />
      <stop
         id="stop4491"
         offset="1" />
    </linearGradient>
    <linearGradient
       id="linearGradient4295"
       y2="1719.2562"
       xlink:href="#linearGradient4290"
       gradientUnits="userSpaceOnUse"
       x2="-65.918999"
       y1="1703.4"
       x1="-65.918999"
       gradientTransform="translate(177.98004,-1659.3001)" />
    <linearGradient
       inkscape:collect="always"
       xlink:href="#linearGradient6312"
       id="linearGradient4342"
       gradientUnits="userSpaceOnUse"
       x1="-65.982002"
       y1="1706.6"
       x2="-65.982002"
       y2="1716.2"
       gradientTransform="translate(157.98,-1659.3)" />
    <linearGradient
       inkscape:collect="always"
       xlink:href="#linearGradient6318"
       id="linearGradient4344"
       gradientUnits="userSpaceOnUse"
       x1="-65.936996"
       y1="1703.4"
       x2="-65.936996"
       y2="1719.4"
       gradientTransform="translate(157.98,-1659.3)" />
    <filter
       style="color-interpolation-filters:sRGB"
       inkscape:label="Drop Shadow"
       id="filter4397"
       width="1.6"
       height="1.6"
       y="-0.2"
       x="-0.2">
      <feFlood
         flood-opacity="0.180392"
         flood-color="rgb(0,0,0)"
         result="flood"
         id="feFlood4399" />
      <feComposite
         in="flood"
         in2="SourceGraphic"
         operator="in"
         result="composite1"
         id="feComposite4401" />
      <feGaussianBlur
         in="composite1"
         stdDeviation="1"
         result="blur"
         id="feGaussianBlur4403" />
      <feOffset
         dx="1"
         dy="1"
         result="offset"
         id="feOffset4405" />
      <feComposite
         in="SourceGraphic"
         in2="offset"
         operator="over"
         result="composite2"
         id="feComposite4407" />
    </filter>
  </defs>
  <metadata
     id="metadata7">
    <rdf:RDF>
      <cc:Work
         rdf:about="">
        <dc:format>image/svg+xml</dc:format>
        <dc:type
           rdf:resource="http://purl.org/dc/dcmitype/StillImage" />
        <dc:title />
      </cc:Work>
    </rdf:RDF>
  </metadata>
  <path
     id="path3338"
     d="m 7,14.04 3.375,-7 3.625,7 z"
     style="fill:#303030;fill-rule:evenodd;stroke:none;stroke-width:0.50000003;stroke-miterlimit:4;stroke-dasharray:none;stroke-opacity:1;fill-opacity:1"
     inkscape:connector-curvature="0" />
  <path
     id="path3338-5"
     d="m 14,27.04 -3.3751,7 L 7,27.04 Z"
     style="fill:#303030;fill-rule:evenodd;stroke:none;stroke-width:0.50000003;stroke-miterlimit:4;stroke-dasharray:none;stroke-opacity:1;fill-opacity:1"
     inkscape:connector-curvature="0" />
  <path
     id="path3338-1"
     d="M 34,14.04 27,10.6649 34,7.04 Z"
     style="fill:#303030;fill-rule:evenodd;stroke:none;stroke-width:0.50000003;stroke-miterlimit:4;stroke-dasharray:none;stroke-opacity:1;fill-opacity:1"
     inkscape:connector-curvature="0" />
  <path
     id="path3338-5-3"
     d="m 27,27.04 7,3.375 -7,3.625 z"
     style="fill:#303030;fill-rule:evenodd;stroke:none;stroke-width:0.50000003;stroke-miterlimit:4;stroke-dasharray:none;stroke-opacity:1;fill-opacity:1"
     inkscape:connector-curvature="0" />
  <path
     id="path3338-5-1"
     d="m 14.5,49.04 -3.375,5 -3.625,-5 z"
     style="fill:#303030;fill-rule:evenodd;stroke:none;stroke-width:0.50000003;stroke-miterlimit:4;stroke-dasharray:none;stroke-opacity:1;fill-opacity:1"
     inkscape:connector-curvature="0" />
  <path
     id="path3338-5-1-4"
     d="m 26.5,54.04 3.375,-5 3.625,5 z"
     style="fill:#303030;fill-rule:evenodd;stroke:none;stroke-width:0.50000003;stroke-miterlimit:4;stroke-dasharray:none;stroke-opacity:1;fill-opacity:1"
     inkscape:connector-curvature="0" />
  <g
     id="g4380">
    <path
       transform="matrix(1.0399,0,0,1.0117,-25.827,-133.25)"
       inkscape:connector-curvature="0"
       style="fill:url(#linearGradient4176);fill-rule:evenodd;filter:url(#filter4262)"
       d="m 68.832,135.59 8.0136,0 4.0068,4.0068 0,9.9964 -12.02,0 z"
       id="path4158" />
    <path
       inkscape:connector-curvature="0"
       style="fill:url(#linearGradient4168);fill-rule:evenodd"
       d="m 46.825614,17.08862 0,-12.0776746 7.21649,0 0,3.008897 3.092766,0 0,9.0685756 z"
       id="path4160" />
  </g>
  <g
     id="g4384">
    <path
       inkscape:connector-curvature="0"
       style="fill:url(#linearGradient4315);fill-rule:evenodd;stroke:url(#linearGradient4331);stroke-width:0.99722999px;filter:url(#filter4291)"
       transform="matrix(1.0052,0,0,1.0003,2.04994,-988.86407)"
       d="m 43.432,1024 0,-7.7451 c 0.01962,-0.109 0.05177,-0.2137 0.23379,-0.2685 l 0.71628,0 0,-1.5284 c 0.0612,-0.3056 0.23508,-0.4233 0.46098,-0.4544 l 4.1927,0 c 0.26026,0.045 0.42358,0.206 0.46844,0.4338 l 0,1.549 5.6864,0 c 0.14981,0.05 0.17097,0.01 0.2619,0.2065 l 0,7.8071 z"
       id="path4305" />
    <path
       inkscape:connector-curvature="0"
       style="fill:url(#linearGradient4323);fill-rule:evenodd;stroke:url(#linearGradient4339);stroke-width:1px;filter:url(#filter4291)"
       d="m 45.8882,35.69 1.9001,-5.7417 c 0.13484,-0.1941 0.31281,-0.2589 0.50229,-0.2892 l 11.153,0 c 0.17088,0.02 0.31634,0.065 0.32386,0.2479 l -1.8588,5.783 z"
       id="path4307" />
    <path
       style="fill:#ffffff;fill-rule:evenodd"
       inkscape:connector-curvature="0"
       d="m 48.2532,29.99 -0.26516,0.7734 10.916,0 0.26516,-0.7734 z"
       id="path4303" />
  </g>
  <g
     id="g4389">
    <path
       transform="matrix(1.0052,0,0,1.0003,1.7333,-990.72)"
       inkscape:connector-curvature="0"
       style="fill:url(#linearGradient4315-3);fill-rule:evenodd;stroke:url(#linearGradient4331-4);stroke-width:0.99721998px;filter:url(#filter4291-94-7)"
       d="m 43.74,1045.9 0,-7.7451 c 0.01962,-0.109 0.05177,-0.2137 0.23379,-0.2685 l 0.71628,0 0,-1.5284 c 0.0612,-0.3056 0.23508,-0.4233 0.46098,-0.4544 l 4.1927,0 c 0.26026,0.045 0.42358,0.206 0.46844,0.4338 l 0,1.549 5.6864,0 c 0.14981,0.05 0.17097,0.01 0.2619,0.2065 l 0,7.8071 z"
       id="path4305-5" />
    <path
       style="fill:#ffffff;fill-rule:evenodd"
       inkscape:connector-curvature="0"
       d="m 46.196312,47.89149 11.083335,0 0,0.861959 -11.083335,0 z"
       id="path4467" />
  </g>
  <g
     id="g4393"
     transform="matrix(0.86666672,0,0,0.86666672,10.60173,0.59999878)">
    <path
       id="path5989"
       d="m 79.498,12 a 7.5,7.5 0 0 1 -7.5,7.5 7.5,7.5 0 0 1 -7.5,-7.5 7.5,7.5 0 0 1 7.5,-7.5 7.5,7.5 0 0 1 7.5,7.5 z"
       style="fill:url(#linearGradient6014);stroke:url(#linearGradient6005);stroke-width:1.15384603"
       inkscape:connector-curvature="0" />
    <path
       id="path5989-7"
       d="m 78.346462,12.000001 a 6.3461539,6.3461539 0 0 1 -6.346154,6.346154 6.3461539,6.3461539 0 0 1 -6.346154,-6.346154 6.3461539,6.3461539 0 0 1 6.346154,-6.3461535 6.3461539,6.3461539 0 0 1 6.346154,6.3461535 z"
       inkscape:connector-curvature="0"
       style="fill:none;stroke:#ffffff;stroke-width:1.15384614;stroke-miterlimit:4;stroke-dasharray:none;stroke-opacity:0.74901997" />
    <path
       id="path6073"
       d="m 68.48,13.1 0,-2 2.5,0 0,-2.5625 1.9375,0 0,2.5625 2.5625,0 0,2 -2.5,0 0,2.4375 -2,0 0,-2.4375 z"
       inkscape:connector-curvature="0"
       style="fill:#ffffff;fill-rule:evenodd" />
  </g>
  <g
     id="g4398"
     transform="matrix(0.86666672,0,0,0.86666672,10.60173,3.2666644)">
    <path
       id="path5989-78"
       d="m 79.498,32 a 7.5,7.5 0 0 1 -7.5,7.5 7.5,7.5 0 0 1 -7.5,-7.5 7.5,7.5 0 0 1 7.5,-7.5 7.5,7.5 0 0 1 7.5,7.5 z"
       style="fill:url(#linearGradient6014-4);stroke:url(#linearGradient6005-6);stroke-width:1.15384603"
       inkscape:connector-curvature="0" />
    <path
       id="path5989-7-6"
       d="m 78.346462,32.000003 a 6.3461539,6.3461539 0 0 1 -6.346154,6.346154 6.3461539,6.3461539 0 0 1 -6.346154,-6.346154 6.3461539,6.3461539 0 0 1 6.346154,-6.346154 6.3461539,6.3461539 0 0 1 6.346154,6.346154 z"
       inkscape:connector-curvature="0"
       style="fill:none;stroke:#ffffff;stroke-width:1.15384603;stroke-opacity:0.74901997" />
    <path
       id="path6073-1"
       d="m 68.48,33.1 0,-2 7,0 0,2 z"
       inkscape:connector-curvature="0"
       style="fill:#ffffff;fill-rule:evenodd" />
  </g>
  <g
     id="g4403"
     transform="matrix(0.86666672,0,0,0.86666672,10.60173,5.9333299)">
    <path
       id="path5989-78-9"
       d="m 79.498,52 a 7.5,7.5 0 0 1 -7.5,7.5 7.5,7.5 0 0 1 -7.5,-7.5 7.5,7.5 0 0 1 7.5,-7.5 7.5,7.5 0 0 1 7.5,7.5 z"
       style="fill:url(#linearGradient6014-4-2);stroke:url(#linearGradient6005-6-9);stroke-width:1.15384603"
       inkscape:connector-curvature="0" />
    <path
       id="path5989-7-6-9"
       d="m 78.346462,52.000004 a 6.3461539,6.3461539 0 0 1 -6.346154,6.346154 6.3461539,6.3461539 0 0 1 -6.346154,-6.346154 6.3461539,6.3461539 0 0 1 6.346154,-6.346154 6.3461539,6.3461539 0 0 1 6.346154,6.346154 z"
       inkscape:connector-curvature="0"
       style="fill:none;stroke:#ffffff;stroke-width:1.15384603;stroke-opacity:0.74901997" />
    <path
       id="path6388"
       style="color:#000000;text-indent:0;text-decoration:none;text-decoration-line:none;text-decoration-style:solid;text-decoration-color:#000000;text-transform:none;block-progression:tb;white-space:normal;isolation:auto;mix-blend-mode:normal;solid-color:#000000;fill:#ffffff;fill-rule:evenodd;color-rendering:auto;image-rendering:auto;shape-rendering:auto"
       d="m 71.746,47.9 c -1.2016,0.1382 -2.3743,1.1499 -2.3984,2.7422 l 1.3008,0.021 c 0.01551,-1.0218 0.58656,-1.3968 1.2461,-1.4726 0.62615,-0.072 1.2066,0.2154 1.416,0.8476 -0.0113,0.4102 -0.16384,0.5972 -0.53516,0.8828 -0.39686,0.3054 -1.0434,0.6023 -1.3125,1.3731 -0.15556,0.4456 -0.18359,1.0837 -0.18359,1.4511 l 1.2988,0 c 0,-0.3227 0.0093,-0.7312 0.11133,-1.0234 0.04644,-0.133 0.38287,-0.3879 0.87891,-0.7695 0.49604,-0.3816 1.1072,-1.0421 1.0781,-2.0137 l -0.002,-0.07 -0.01562,-0.066 c -0.33891,-1.3723 -1.6812,-2.0405 -2.8828,-1.9024 z"
       inkscape:connector-curvature="0" />
    <path
       id="rect6390"
       d="m 71.186,54.8 1.562,0 0,1.562 -1.562,0 z"
       inkscape:connector-curvature="0"
       style="fill:#ffffff" />
  </g>
  <path
     id="path6299"
     d="m 87,11.84 4.0261,4.1187 6.9739,-9 -2.5093,1.9e-4 -4.7058,6.1932 -1.2169,-1.3119 z"
     inkscape:connector-curvature="0"
     style="fill:#303030;fill-rule:evenodd;stroke:none;stroke-width:0.50000003;stroke-miterlimit:4;stroke-dasharray:none;stroke-opacity:1" />
  <g
     id="g4409"
     transform="matrix(0.86666672,0,0,0.86666672,13.268397,5.9333299)">
    <path
       id="path5989-78-9-6"
       d="m 99.498,52 a 7.5,7.5 0 0 1 -7.5,7.5 7.5,7.5 0 0 1 -7.5,-7.5 7.5,7.5 0 0 1 7.5,-7.5 7.5,7.5 0 0 1 7.5,7.5 z"
       style="fill:url(#linearGradient4342);stroke:url(#linearGradient4344);stroke-width:1.15384603"
       inkscape:connector-curvature="0" />
    <path
       id="path5989-7-6-9-3"
       d="m 98.346464,52.000004 a 6.3461539,6.3461539 0 0 1 -6.346154,6.346154 6.3461539,6.3461539 0 0 1 -6.346154,-6.346154 6.3461539,6.3461539 0 0 1 6.346154,-6.346154 6.3461539,6.3461539 0 0 1 6.346154,6.346154 z"
       inkscape:connector-curvature="0"
       style="fill:none;stroke:#ffffff;stroke-width:1.15384603;stroke-opacity:0.74901997" />
    <path
       id="path6384"
       d="m 89.964035,50.984615 3.164538,0 0,3.732554 1.450847,0 0,0.882831 -4.614462,0 0,-0.880892 1.376077,0 0,-2.807446 -1.377,0 z"
       inkscape:connector-curvature="0"
       style="fill:#ffffff;fill-rule:evenodd" />
    <path
       id="path6386"
       d="m 91.181035,49.8 1.846154,0 0,-1.846154 -1.846154,0 z"
       inkscape:connector-curvature="0"
       style="fill:#ffffff;fill-rule:evenodd" />
  </g>
  <path
     id="path5040"
     d="m 88.477,28.14 1.5403,-1.4709 2.9196,2.9325 2.8752,-2.964 1.6319,1.563 -2.9917,2.9666 2.9418,2.9929 -1.6227,1.4775 -2.8687,-2.9194 -3.0557,2.9167 -1.4032,-1.6011 2.9505,-2.8492 z"
     inkscape:connector-curvature="0"
     style="fill:#303030;fill-rule:evenodd;stroke:none;stroke-width:0.50000003;stroke-miterlimit:4;stroke-dasharray:none;stroke-opacity:0.49803922" />
  <g
     id="g4415" />
</svg>
